<mxfile host="Electron" modified="2024-04-15T00:17:34.878Z" agent="Mozilla/5.0 (X11; Linux x86_64) AppleWebKit/537.36 (KHTML, like Gecko) draw.io/24.1.0 Chrome/120.0.6099.109 Electron/28.1.0 Safari/537.36" etag="bFI_ArSHzllc9g5pMTRF" version="24.1.0" type="device">
  <diagram name="第 1 页" id="ECctuQMa_HZ1lmlo3XRY">
    <mxGraphModel dx="216" dy="-136" grid="1" gridSize="10" guides="1" tooltips="1" connect="1" arrows="1" fold="1" page="0" pageScale="1" pageWidth="827" pageHeight="1169" math="0" shadow="0">
      <root>
        <mxCell id="0" />
        <mxCell id="1" parent="0" />
        <mxCell id="XCc1nbjHwyDW-S4m8Q8q-5" value="" style="group" vertex="1" connectable="0" parent="1">
          <mxGeometry x="240" y="520" width="100" height="80" as="geometry" />
        </mxCell>
        <mxCell id="Q5siARaElhEyc5Uw5sY2-2" value="Half&lt;br&gt;Adder" style="rounded=0;whiteSpace=wrap;html=1;" parent="XCc1nbjHwyDW-S4m8Q8q-5" vertex="1">
          <mxGeometry x="20" width="60" height="80" as="geometry" />
        </mxCell>
        <mxCell id="XCc1nbjHwyDW-S4m8Q8q-1" style="edgeStyle=orthogonalEdgeStyle;rounded=0;orthogonalLoop=1;jettySize=auto;html=1;endArrow=none;endFill=0;" edge="1" parent="XCc1nbjHwyDW-S4m8Q8q-5" source="Q5siARaElhEyc5Uw5sY2-9">
          <mxGeometry relative="1" as="geometry">
            <mxPoint y="20" as="targetPoint" />
          </mxGeometry>
        </mxCell>
        <mxCell id="Q5siARaElhEyc5Uw5sY2-9" value="0" style="text;strokeColor=none;align=center;fillColor=none;html=1;verticalAlign=middle;whiteSpace=wrap;rounded=0;fontSize=6;" parent="XCc1nbjHwyDW-S4m8Q8q-5" vertex="1">
          <mxGeometry x="20" y="15" width="10" height="10" as="geometry" />
        </mxCell>
        <mxCell id="XCc1nbjHwyDW-S4m8Q8q-2" style="edgeStyle=orthogonalEdgeStyle;rounded=0;orthogonalLoop=1;jettySize=auto;html=1;endArrow=none;endFill=0;" edge="1" parent="XCc1nbjHwyDW-S4m8Q8q-5" source="Q5siARaElhEyc5Uw5sY2-11">
          <mxGeometry relative="1" as="geometry">
            <mxPoint y="60" as="targetPoint" />
          </mxGeometry>
        </mxCell>
        <mxCell id="Q5siARaElhEyc5Uw5sY2-11" value="1" style="text;strokeColor=none;align=center;fillColor=none;html=1;verticalAlign=middle;whiteSpace=wrap;rounded=0;fontSize=6;" parent="XCc1nbjHwyDW-S4m8Q8q-5" vertex="1">
          <mxGeometry x="20" y="55" width="10" height="10" as="geometry" />
        </mxCell>
        <mxCell id="XCc1nbjHwyDW-S4m8Q8q-4" style="edgeStyle=orthogonalEdgeStyle;rounded=0;orthogonalLoop=1;jettySize=auto;html=1;endArrow=none;endFill=0;" edge="1" parent="XCc1nbjHwyDW-S4m8Q8q-5" source="TEKavE3b4gt7bDdHGCyq-1">
          <mxGeometry relative="1" as="geometry">
            <mxPoint x="100" y="20" as="targetPoint" />
          </mxGeometry>
        </mxCell>
        <mxCell id="TEKavE3b4gt7bDdHGCyq-1" value="S" style="text;strokeColor=none;align=center;fillColor=none;html=1;verticalAlign=middle;whiteSpace=wrap;rounded=0;fontSize=6;" parent="XCc1nbjHwyDW-S4m8Q8q-5" vertex="1">
          <mxGeometry x="70" y="15" width="10" height="10" as="geometry" />
        </mxCell>
        <mxCell id="XCc1nbjHwyDW-S4m8Q8q-3" style="edgeStyle=orthogonalEdgeStyle;rounded=0;orthogonalLoop=1;jettySize=auto;html=1;endArrow=none;endFill=0;" edge="1" parent="XCc1nbjHwyDW-S4m8Q8q-5" source="TEKavE3b4gt7bDdHGCyq-3">
          <mxGeometry relative="1" as="geometry">
            <mxPoint x="100" y="60" as="targetPoint" />
          </mxGeometry>
        </mxCell>
        <mxCell id="TEKavE3b4gt7bDdHGCyq-3" value="C-out" style="text;strokeColor=none;align=center;fillColor=none;html=1;verticalAlign=middle;whiteSpace=wrap;rounded=0;fontSize=6;" parent="XCc1nbjHwyDW-S4m8Q8q-5" vertex="1">
          <mxGeometry x="60" y="55" width="20" height="10" as="geometry" />
        </mxCell>
      </root>
    </mxGraphModel>
  </diagram>
</mxfile>
